<?xml version="1.0" encoding="UTF-8" standalone="no"?>
<!DOCTYPE svg PUBLIC "-//W3C//DTD SVG 1.1//EN" "http://www.w3.org/Graphics/SVG/1.1/DTD/svg11.dtd">
<svg width="100%" height="100%" viewBox="0 0 202 82" version="1.1" xmlns="http://www.w3.org/2000/svg" xmlns:xlink="http://www.w3.org/1999/xlink" xml:space="preserve" xmlns:serif="http://www.serif.com/" style="fill-rule:evenodd;clip-rule:evenodd;stroke-linejoin:round;stroke-miterlimit:2;">
    <g transform="matrix(0.266667,0,0,0.266667,4.93758,0.304917)">
        <g>
            <g transform="matrix(4.16667,0,0,4.16667,0,0)">
                <path d="M39.782,68.34L8.057,36.619L39.763,4.911L71.489,36.638L39.782,68.34ZM41.683,45.56L45.619,45.56L50.501,26.429L46.792,26.429L44.138,38.966C44.014,39.663 43.918,40.324 43.857,40.954L43.79,41.461L43.697,41.461C43.637,40.484 43.535,39.673 43.404,39.035L40.749,26.429L36.932,26.429L41.683,45.56ZM55.308,29.635L56.537,29.635C57.291,29.635 57.907,29.89 58.377,30.406C58.847,30.913 59.083,31.686 59.083,32.719C59.083,34.816 58.249,35.865 56.574,35.865L55.308,35.865L55.308,29.635ZM55.308,39.035L56.844,39.035C58.665,39.035 60.132,38.422 61.245,37.194C62.356,35.964 62.913,34.41 62.913,32.524C62.913,30.541 62.405,29.03 61.392,27.988C60.387,26.95 58.973,26.429 57.15,26.429L51.627,26.429L51.627,45.56L55.308,45.56L55.308,39.035ZM28.224,37.967C28.116,38.456 28.005,39.239 27.892,40.316L27.799,41.022L27.732,41.022C27.678,40.23 27.519,39.248 27.25,38.075L24.57,26.429L19.407,26.429L19.407,45.56L22.461,45.56L22.461,35.419C22.461,33.668 22.416,31.893 22.329,30.098L22.434,30.098L22.953,33.485L25.876,45.56L29.24,45.56L32.027,33.313C32.292,31.98 32.48,30.905 32.599,30.098L32.682,30.098C32.591,32.029 32.546,33.469 32.546,34.433L32.546,45.56L35.707,45.56L35.707,26.429L30.746,26.429L28.224,37.967Z" style="fill:white;fill-rule:nonzero;"/>
            </g>
            <g transform="matrix(4.16667,0,0,4.16667,0,0)">
                <path d="M90.69,27.85L90.69,18.415C90.69,17.6 90.728,16.375 90.803,14.738L90.735,14.738C90.637,15.424 90.476,16.333 90.249,17.465L87.885,27.85L85.034,27.85L82.557,17.611L82.115,14.738L82.025,14.738C82.1,16.262 82.138,17.767 82.138,19.252L82.138,27.85L79.547,27.85L79.547,11.627L83.925,11.627L86.199,21.503C86.425,22.498 86.561,23.332 86.606,24.003L86.663,24.003L86.742,23.403C86.84,22.491 86.935,21.828 87.025,21.413L89.163,11.627L93.371,11.627L93.371,27.85L90.69,27.85Z" style="fill:white;fill-rule:nonzero;"/>
            </g>
            <g transform="matrix(4.16667,0,0,4.16667,0,0)">
                <path d="M95.918,27.85L95.918,16.266L98.869,16.266L98.869,27.85L95.918,27.85ZM97.377,14.67C96.855,14.67 96.429,14.494 96.097,14.139C95.765,13.784 95.599,13.358 95.599,12.86C95.599,12.317 95.769,11.884 96.109,11.56C96.449,11.236 96.871,11.073 97.377,11.073C97.919,11.073 98.355,11.239 98.689,11.57C99.021,11.903 99.185,12.332 99.185,12.86C99.185,13.388 99.021,13.822 98.689,14.161C98.355,14.5 97.919,14.67 97.377,14.67Z" style="fill:white;fill-rule:nonzero;"/>
            </g>
            <g transform="matrix(4.16667,0,0,4.16667,0,0)">
                <path d="M107.604,27.386C107.029,27.831 106.242,28.053 105.238,28.053C103.941,28.053 102.867,27.512 102.014,26.43C101.162,25.348 100.736,23.977 100.736,22.317C100.736,20.365 101.184,18.833 102.076,17.725C102.971,16.616 104.141,16.062 105.59,16.062C106.525,16.062 107.195,16.224 107.604,16.548L107.604,19.139C107.18,18.694 106.66,18.472 106.041,18.472C105.355,18.472 104.811,18.803 104.408,19.467C104.004,20.131 103.803,21.009 103.803,22.103C103.803,23.249 103.986,24.122 104.357,24.722C104.727,25.321 105.242,25.621 105.906,25.621C106.555,25.621 107.121,25.406 107.604,24.976L107.604,27.386Z" style="fill:white;fill-rule:nonzero;"/>
            </g>
            <g transform="matrix(4.16667,0,0,4.16667,0,0)">
                <path d="M115.521,19.026C115.184,18.883 114.842,18.811 114.504,18.811C113.07,18.811 112.354,19.878 112.354,22.012L112.354,27.85L109.402,27.85L109.402,16.266L112.354,16.266L112.354,18.188L112.4,18.188C112.807,16.771 113.602,16.062 114.787,16.062C115.02,16.062 115.266,16.1 115.521,16.175L115.521,19.026Z" style="fill:white;fill-rule:nonzero;"/>
            </g>
            <g transform="matrix(4.16667,0,0,4.16667,0,0)">
                <path d="M120.5,18.494C119.391,18.494 118.836,19.666 118.836,22.012C118.836,24.418 119.391,25.621 120.5,25.621C121.6,25.621 122.15,24.381 122.15,21.899C122.15,19.629 121.6,18.494 120.5,18.494ZM120.453,28.053C118.961,28.053 117.807,27.529 116.992,26.48C116.178,25.433 115.771,23.951 115.771,22.035C115.771,20.127 116.189,18.654 117.027,17.617C117.863,16.581 119.021,16.062 120.5,16.062C121.986,16.062 123.141,16.575 123.967,17.6C124.793,18.626 125.207,20.052 125.207,21.876C125.207,23.867 124.795,25.394 123.979,26.458C123.16,27.521 121.986,28.053 120.453,28.053Z" style="fill:white;fill-rule:nonzero;"/>
            </g>
            <g transform="matrix(4.16667,0,0,4.16667,0,0)">
                <path d="M126.711,27.476L126.711,24.908C127.531,25.481 128.389,25.768 129.276,25.768C130.19,25.768 130.646,25.388 130.646,24.625C130.646,24.324 130.524,24.07 130.285,23.862C130.043,23.655 129.701,23.422 129.256,23.166C128.177,22.548 127.477,21.955 127.15,21.39C126.826,20.824 126.664,20.213 126.664,19.557C126.664,18.517 127.021,17.674 127.734,17.029C128.447,16.384 129.432,16.062 130.692,16.062C131.559,16.062 132.355,16.205 133.078,16.491L133.078,19.003C132.279,18.566 131.578,18.347 130.975,18.347C130.063,18.347 129.604,18.728 129.604,19.489C129.604,19.731 129.686,19.953 129.85,20.157C130.011,20.36 130.423,20.647 131.088,21.017C132.092,21.59 132.754,22.144 133.078,22.68C133.404,23.215 133.566,23.833 133.566,24.535C133.566,25.576 133.217,26.422 132.52,27.075C131.82,27.727 130.809,28.053 129.479,28.053C128.334,28.053 127.412,27.861 126.711,27.476Z" style="fill:white;fill-rule:nonzero;"/>
            </g>
            <g transform="matrix(4.16667,0,0,4.16667,0,0)">
                <path d="M139.539,18.494C138.43,18.494 137.875,19.666 137.875,22.012C137.875,24.418 138.43,25.621 139.539,25.621C140.641,25.621 141.189,24.381 141.189,21.899C141.189,19.629 140.641,18.494 139.539,18.494ZM139.494,28.053C138,28.053 136.846,27.529 136.031,26.48C135.217,25.433 134.811,23.951 134.811,22.035C134.811,20.127 135.229,18.654 136.066,17.617C136.902,16.581 138.061,16.062 139.539,16.062C141.023,16.062 142.18,16.575 143.006,17.6C143.832,18.626 144.244,20.052 144.244,21.876C144.244,23.867 143.836,25.394 143.018,26.458C142.199,27.521 141.023,28.053 139.494,28.053Z" style="fill:white;fill-rule:nonzero;"/>
            </g>
            <g transform="matrix(4.16667,0,0,4.16667,0,0)">
                <path d="M151.191,13.064C150.949,12.973 150.662,12.928 150.33,12.928C149.508,12.928 149.098,13.422 149.098,14.41L149.098,16.266L150.977,16.266L150.977,18.675L149.098,18.675L149.098,27.85L146.156,27.85L146.156,18.675L144.811,18.675L144.811,16.266L146.156,16.266L146.156,14.523C146.156,13.264 146.484,12.277 147.141,11.565C147.797,10.853 148.752,10.496 150.002,10.496C150.268,10.496 150.496,10.515 150.693,10.553L151.191,10.654L151.191,13.064Z" style="fill:white;fill-rule:nonzero;"/>
            </g>
            <g transform="matrix(4.16667,0,0,4.16667,0,0)">
                <path d="M157.605,27.691C157,27.932 156.354,28.053 155.66,28.053C153.684,28.053 152.695,26.873 152.695,24.512L152.695,18.675L150.344,18.675L150.344,16.266L152.695,16.266L152.695,13.675L152.932,13.596C154.637,13.03 155.539,12.747 155.637,12.747L155.637,16.266L157.605,16.266L157.605,18.675L155.637,18.675L155.637,24.264C155.637,25.168 155.994,25.621 156.711,25.621C157.043,25.621 157.34,25.553 157.605,25.417L157.605,27.691Z" style="fill:white;fill-rule:nonzero;"/>
            </g>
            <g transform="matrix(4.16667,0,0,4.16667,0,0)">
                <path d="M161.426,14.852L161.426,15.855L161.904,15.855C162.086,15.855 162.229,15.809 162.334,15.716C162.439,15.623 162.492,15.499 162.492,15.346C162.492,15.016 162.27,14.852 161.822,14.852L161.426,14.852ZM162.535,17.767L162.225,16.889C162.104,16.545 161.935,16.373 161.722,16.373L161.426,16.373L161.426,17.767L160.748,17.767L160.748,14.294L161.882,14.294C162.317,14.294 162.65,14.379 162.878,14.552C163.107,14.725 163.221,14.963 163.221,15.268C163.221,15.744 162.942,16.052 162.384,16.19L162.384,16.205C162.609,16.262 162.79,16.453 162.928,16.778L163.345,17.767L162.535,17.767ZM161.927,13.699C161.243,13.699 160.674,13.927 160.221,14.383C159.77,14.838 159.543,15.4 159.543,16.068C159.543,16.747 159.773,17.311 160.235,17.762C160.695,18.211 161.261,18.436 161.927,18.436C162.585,18.436 163.147,18.209 163.61,17.754C164.072,17.299 164.303,16.737 164.303,16.068C164.303,15.393 164.075,14.83 163.618,14.377C163.162,13.925 162.598,13.699 161.927,13.699ZM161.919,18.819C161.113,18.819 160.442,18.561 159.902,18.043C159.362,17.527 159.093,16.871 159.093,16.075C159.093,15.301 159.367,14.646 159.913,14.109C160.46,13.573 161.136,13.304 161.941,13.304C162.737,13.304 163.405,13.565 163.945,14.085C164.483,14.605 164.753,15.261 164.753,16.052C164.753,16.832 164.479,17.486 163.93,18.02C163.38,18.553 162.71,18.819 161.919,18.819Z" style="fill:white;fill-rule:nonzero;"/>
            </g>
            <g transform="matrix(4.16667,0,0,4.16667,0,0)">
                <path d="M88.029,45.226L88.029,37.073C88.029,36.603 88.046,36.176 88.08,35.79L88.14,34.866L88.08,34.866C87.978,35.54 87.856,36.051 87.715,36.402L84.847,45.226L83.931,45.226L81.029,36.47C80.961,36.272 80.846,35.72 80.681,34.815L80.613,34.815C80.681,35.664 80.715,36.453 80.715,37.183L80.715,45.226L79.57,45.226L79.57,33.059L81.216,33.059L84.101,41.858C84.231,42.259 84.341,42.714 84.432,43.224L84.465,43.224L84.796,41.782L87.613,33.059L89.208,33.059L89.208,45.226L88.029,45.226Z" style="fill:white;fill-rule:nonzero;"/>
            </g>
            <g transform="matrix(4.16667,0,0,4.16667,0,0)">
                <path d="M94.529,37.462C93.888,37.462 93.392,37.759 93.039,38.354C92.685,38.948 92.509,39.796 92.509,40.899C92.509,43.167 93.182,44.301 94.529,44.301C95.835,44.301 96.488,43.15 96.488,40.848C96.488,39.762 96.318,38.926 95.978,38.341C95.638,37.755 95.156,37.462 94.529,37.462ZM94.478,45.378C93.437,45.378 92.634,44.985 92.072,44.2C91.509,43.414 91.227,42.331 91.227,40.95C91.227,39.507 91.521,38.386 92.11,37.586C92.699,36.786 93.509,36.385 94.544,36.385C95.562,36.385 96.359,36.777 96.933,37.56C97.507,38.344 97.794,39.416 97.794,40.781C97.794,42.229 97.511,43.357 96.941,44.166C96.375,44.974 95.552,45.378 94.478,45.378Z" style="fill:white;fill-rule:nonzero;"/>
            </g>
            <g transform="matrix(4.16667,0,0,4.16667,0,0)">
                <path d="M99.169,44.929L99.169,43.699C99.808,44.128 100.439,44.344 101.061,44.344C102.086,44.344 102.598,43.891 102.598,42.986C102.598,42.698 102.498,42.435 102.301,42.197C102.102,41.96 101.727,41.682 101.172,41.366C100.328,40.896 99.787,40.466 99.546,40.076C99.306,39.686 99.185,39.258 99.185,38.794C99.185,38.087 99.437,37.509 99.937,37.06C100.438,36.61 101.088,36.385 101.885,36.385C102.518,36.385 103.078,36.501 103.564,36.733L103.564,37.913C102.992,37.584 102.445,37.42 101.918,37.42C101.467,37.42 101.109,37.542 100.85,37.785C100.59,38.029 100.459,38.348 100.459,38.744C100.459,39.015 100.545,39.271 100.713,39.512C100.883,39.752 101.285,40.053 101.918,40.415C102.744,40.879 103.275,41.302 103.51,41.684C103.744,42.065 103.861,42.495 103.861,42.969C103.861,43.665 103.615,44.241 103.123,44.696C102.631,45.151 101.949,45.378 101.078,45.378C100.35,45.378 99.712,45.228 99.169,44.929Z" style="fill:white;fill-rule:nonzero;"/>
            </g>
            <g transform="matrix(4.16667,0,0,4.16667,0,0)">
                <path d="M108.799,45.159C108.453,45.305 108.078,45.378 107.672,45.378C106.41,45.378 105.779,44.632 105.779,43.138L105.779,37.582L104.59,37.582L104.59,36.538L105.779,36.538L105.779,34.382L107.01,33.984L107.01,36.538L108.799,36.538L108.799,37.582L107.01,37.582L107.01,43.02C107.01,43.874 107.34,44.301 108.002,44.301C108.291,44.301 108.557,44.239 108.799,44.115L108.799,45.159Z" style="fill:white;fill-rule:nonzero;"/>
            </g>
            <g transform="matrix(4.16667,0,0,4.16667,0,0)">
                <path d="M117.387,45.226L116.096,45.226L112.727,33.059L114.119,33.059L116.537,42.24C116.639,42.619 116.713,43.04 116.758,43.503L116.791,43.503C116.803,43.368 116.891,42.935 117.055,42.205L119.574,33.059L120.916,33.059L117.387,45.226Z" style="fill:white;fill-rule:nonzero;"/>
            </g>
            <g transform="matrix(4.16667,0,0,4.16667,0,0)">
                <path d="M125.803,40.653L124.098,41.035C123.135,41.249 122.654,41.824 122.654,42.757C122.654,43.238 122.779,43.62 123.027,43.902C123.277,44.185 123.6,44.327 123.994,44.327C124.549,44.327 124.988,44.103 125.314,43.657C125.639,43.21 125.803,42.626 125.803,41.91L125.803,40.653ZM125.803,45.226L125.803,43.919L125.768,43.919C125.326,44.893 124.592,45.378 123.563,45.378C122.924,45.378 122.406,45.151 122.014,44.696C121.621,44.241 121.424,43.659 121.424,42.953C121.424,41.454 122.199,40.526 123.75,40.169L125.803,39.703L125.803,39.125C125.803,38 125.305,37.437 124.309,37.437C123.602,37.437 122.867,37.74 122.104,38.345L122.104,37.098C122.906,36.623 123.699,36.385 124.479,36.385C126.182,36.385 127.033,37.327 127.033,39.21L127.033,45.226L125.803,45.226Z" style="fill:white;fill-rule:nonzero;"/>
            </g>
            <g transform="matrix(4.16667,0,0,4.16667,0,0)">
                <rect x="129.154" y="32.363" width="1.23" height="12.863" style="fill:white;"/>
            </g>
            <g transform="matrix(4.16667,0,0,4.16667,0,0)">
                <path d="M137.139,45.226L137.139,43.919L137.104,43.919C136.635,44.893 135.896,45.378 134.889,45.378C133.305,45.378 132.514,44.454 132.514,42.604L132.514,36.538L133.744,36.538L133.744,42.307C133.744,43.636 134.268,44.301 135.313,44.301C135.852,44.301 136.289,44.105 136.629,43.711C136.967,43.318 137.139,42.791 137.139,42.128L137.139,36.538L138.367,36.538L138.367,45.226L137.139,45.226Z" style="fill:white;fill-rule:nonzero;"/>
            </g>
            <g transform="matrix(4.16667,0,0,4.16667,0,0)">
                <path d="M144.436,40.653L142.729,41.035C141.768,41.249 141.287,41.824 141.287,42.757C141.287,43.238 141.412,43.62 141.66,43.902C141.908,44.185 142.23,44.327 142.627,44.327C143.182,44.327 143.621,44.103 143.947,43.657C144.271,43.21 144.436,42.626 144.436,41.91L144.436,40.653ZM144.436,45.226L144.436,43.919L144.4,43.919C143.959,44.893 143.223,45.378 142.193,45.378C141.555,45.378 141.039,45.151 140.646,44.696C140.252,44.241 140.057,43.659 140.057,42.953C140.057,41.454 140.83,40.526 142.381,40.169L144.436,39.703L144.436,39.125C144.436,38 143.938,37.437 142.941,37.437C142.234,37.437 141.498,37.74 140.734,38.345L140.734,37.098C141.539,36.623 142.33,36.385 143.111,36.385C144.813,36.385 145.664,37.327 145.664,39.21L145.664,45.226L144.436,45.226Z" style="fill:white;fill-rule:nonzero;"/>
            </g>
            <g transform="matrix(4.16667,0,0,4.16667,0,0)">
                <path d="M149,40.381L149,41.594C149,42.386 149.156,43.036 149.475,43.541C149.791,44.048 150.229,44.301 150.789,44.301C152.113,44.301 152.773,43.062 152.773,40.585C152.773,39.573 152.615,38.799 152.299,38.265C151.982,37.73 151.539,37.462 150.967,37.462C150.352,37.462 149.869,37.736 149.521,38.282C149.172,38.828 149,39.528 149,40.381ZM149.059,44.115L149.016,44.115L149.016,45.226L147.785,45.226L147.785,32.363L149.016,32.363L149.016,37.963L149.059,37.963C149.516,36.911 150.279,36.385 151.35,36.385C152.215,36.385 152.881,36.749 153.352,37.48C153.82,38.209 154.055,39.205 154.055,40.466C154.055,42.016 153.793,43.223 153.266,44.085C152.74,44.947 151.986,45.378 151.002,45.378C150.113,45.378 149.465,44.957 149.059,44.115Z" style="fill:white;fill-rule:nonzero;"/>
            </g>
            <g transform="matrix(4.16667,0,0,4.16667,0,0)">
                <rect x="155.813" y="32.363" width="1.23" height="12.863" style="fill:white;"/>
            </g>
            <g transform="matrix(4.16667,0,0,4.16667,0,0)">
                <path d="M163.635,40.186C163.635,38.332 163.086,37.404 161.988,37.404C161.439,37.404 160.994,37.638 160.652,38.108C160.311,38.578 160.117,39.27 160.07,40.186L163.635,40.186ZM160.055,41.179C160.055,43.277 160.814,44.327 162.336,44.327C162.992,44.327 163.664,44.094 164.348,43.63L164.348,44.793C163.668,45.184 162.945,45.378 162.176,45.378C161.072,45.378 160.232,44.995 159.656,44.225C159.078,43.456 158.791,42.325 158.791,40.832C158.791,39.519 159.082,38.45 159.664,37.624C160.246,36.798 161.039,36.385 162.039,36.385C163.918,36.385 164.855,37.706 164.855,40.347L164.855,41.179L160.055,41.179Z" style="fill:white;fill-rule:nonzero;"/>
            </g>
            <g transform="matrix(4.16667,0,0,4.16667,0,0)">
                <path d="M80.868,51.589L80.868,56.85L82.022,56.85C82.763,56.85 83.33,56.605 83.723,56.116C84.116,55.626 84.313,54.969 84.313,54.143C84.313,52.441 83.589,51.589 82.141,51.589L80.868,51.589ZM80.868,58.012L80.868,62.603L79.57,62.603L79.57,50.436L82.353,50.436C83.411,50.436 84.228,50.745 84.805,51.361C85.382,51.977 85.67,52.868 85.67,54.034C85.67,55.175 85.354,56.124 84.72,56.88C84.086,57.635 83.215,58.012 82.107,58.012L80.868,58.012Z" style="fill:white;fill-rule:nonzero;"/>
            </g>
            <g transform="matrix(4.16667,0,0,4.16667,0,0)">
                <path d="M91.296,55.127C91.007,55.014 90.741,54.957 90.498,54.957C89.242,54.957 88.615,56.029 88.615,58.173L88.615,62.603L87.384,62.603L87.384,53.914L88.615,53.914L88.615,55.442L88.657,55.442C88.951,54.332 89.599,53.779 90.6,53.779C90.882,53.779 91.115,53.812 91.296,53.88L91.296,55.127Z" style="fill:white;fill-rule:nonzero;"/>
            </g>
            <g transform="matrix(4.16667,0,0,4.16667,0,0)">
                <path d="M94.894,54.839C94.253,54.839 93.757,55.135 93.404,55.73C93.05,56.324 92.874,57.172 92.874,58.275C92.874,60.542 93.546,61.677 94.894,61.677C96.199,61.677 96.853,60.527 96.853,58.224C96.853,57.138 96.683,56.303 96.343,55.717C96.003,55.132 95.521,54.839 94.894,54.839ZM94.843,62.755C93.802,62.755 93,62.363 92.437,61.575C91.875,60.79 91.592,59.707 91.592,58.326C91.592,56.883 91.886,55.762 92.475,54.962C93.062,54.162 93.875,53.761 94.91,53.761C95.927,53.761 96.724,54.154 97.298,54.937C97.873,55.72 98.16,56.792 98.16,58.157C98.16,59.605 97.875,60.733 97.306,61.541C96.738,62.35 95.918,62.755 94.843,62.755Z" style="fill:white;fill-rule:nonzero;"/>
            </g>
            <g transform="matrix(4.16667,0,0,4.16667,0,0)">
                <path d="M103.166,50.784C102.967,50.715 102.736,50.682 102.471,50.682C101.666,50.682 101.266,51.173 101.266,52.158L101.266,53.914L103.006,53.914L103.006,54.957L101.266,54.957L101.266,62.603L100.035,62.603L100.035,54.957L98.787,54.957L98.787,53.914L100.035,53.914L100.035,52.174C100.035,51.377 100.24,50.748 100.65,50.29C101.061,49.832 101.645,49.604 102.402,49.604C102.611,49.604 102.865,49.632 103.166,49.689L103.166,50.784Z" style="fill:white;fill-rule:nonzero;"/>
            </g>
            <g transform="matrix(4.16667,0,0,4.16667,0,0)">
                <path d="M108.393,57.562C108.393,55.707 107.844,54.779 106.746,54.779C106.197,54.779 105.752,55.014 105.41,55.484C105.068,55.953 104.873,56.646 104.83,57.562L108.393,57.562ZM104.813,58.555C104.813,60.654 105.572,61.703 107.094,61.703C107.75,61.703 108.42,61.471 109.104,61.007L109.104,62.17C108.426,62.56 107.701,62.755 106.934,62.755C105.83,62.755 104.99,62.371 104.412,61.601C103.836,60.832 103.547,59.7 103.547,58.207C103.547,56.895 103.838,55.826 104.422,55C105.004,54.174 105.797,53.761 106.797,53.761C108.676,53.761 109.613,55.082 109.613,57.724L109.613,58.555L104.813,58.555Z" style="fill:white;fill-rule:nonzero;"/>
            </g>
            <g transform="matrix(4.16667,0,0,4.16667,0,0)">
                <path d="M110.861,62.305L110.861,61.075C111.5,61.505 112.131,61.72 112.752,61.72C113.777,61.72 114.289,61.267 114.289,60.363C114.289,60.074 114.189,59.811 113.992,59.573C113.793,59.335 113.418,59.059 112.863,58.742C112.02,58.272 111.479,57.842 111.238,57.453C110.998,57.061 110.877,56.635 110.877,56.17C110.877,55.464 111.129,54.885 111.629,54.436C112.129,53.986 112.779,53.761 113.576,53.761C114.209,53.761 114.77,53.877 115.256,54.11L115.256,55.289C114.686,54.96 114.137,54.796 113.609,54.796C113.158,54.796 112.801,54.918 112.541,55.161C112.281,55.404 112.15,55.724 112.15,56.12C112.15,56.392 112.236,56.648 112.406,56.888C112.574,57.128 112.977,57.429 113.609,57.791C114.436,58.256 114.967,58.678 115.201,59.061C115.436,59.442 115.553,59.871 115.553,60.346C115.553,61.04 115.307,61.617 114.814,62.072C114.322,62.528 113.641,62.755 112.77,62.755C112.041,62.755 111.404,62.605 110.861,62.305Z" style="fill:white;fill-rule:nonzero;"/>
            </g>
            <g transform="matrix(4.16667,0,0,4.16667,0,0)">
                <path d="M116.877,62.305L116.877,61.075C117.516,61.505 118.146,61.72 118.77,61.72C119.793,61.72 120.305,61.267 120.305,60.363C120.305,60.074 120.205,59.811 120.008,59.573C119.811,59.335 119.434,59.059 118.879,58.742C118.037,58.272 117.494,57.842 117.254,57.453C117.014,57.061 116.895,56.635 116.895,56.17C116.895,55.464 117.145,54.885 117.645,54.436C118.145,53.986 118.795,53.761 119.592,53.761C120.225,53.761 120.785,53.877 121.271,54.11L121.271,55.289C120.701,54.96 120.152,54.796 119.625,54.796C119.174,54.796 118.816,54.918 118.557,55.161C118.297,55.404 118.166,55.724 118.166,56.12C118.166,56.392 118.252,56.648 118.422,56.888C118.59,57.128 118.992,57.429 119.625,57.791C120.451,58.256 120.982,58.678 121.217,59.061C121.451,59.442 121.568,59.871 121.568,60.346C121.568,61.04 121.322,61.617 120.83,62.072C120.338,62.528 119.656,62.755 118.785,62.755C118.055,62.755 117.42,62.605 116.877,62.305Z" style="fill:white;fill-rule:nonzero;"/>
            </g>
            <g transform="matrix(4.16667,0,0,4.16667,0,0)">
                <path d="M123.258,62.603L123.258,53.914L124.486,53.914L124.486,62.603L123.258,62.603ZM123.885,52.039C123.641,52.039 123.436,51.957 123.266,51.79C123.096,51.623 123.012,51.414 123.012,51.165C123.012,50.912 123.098,50.706 123.27,50.55C123.441,50.394 123.648,50.316 123.885,50.316C124.127,50.316 124.332,50.394 124.5,50.55C124.666,50.706 124.75,50.912 124.75,51.165C124.75,51.414 124.67,51.623 124.508,51.79C124.348,51.957 124.139,52.039 123.885,52.039Z" style="fill:white;fill-rule:nonzero;"/>
            </g>
            <g transform="matrix(4.16667,0,0,4.16667,0,0)">
                <path d="M129.535,54.839C128.896,54.839 128.399,55.135 128.047,55.73C127.693,56.324 127.516,57.172 127.516,58.275C127.516,60.542 128.188,61.677 129.535,61.677C130.841,61.677 131.496,60.527 131.496,58.224C131.496,57.138 131.326,56.303 130.985,55.717C130.646,55.132 130.164,54.839 129.535,54.839ZM129.483,62.755C128.442,62.755 127.643,62.363 127.08,61.575C126.518,60.79 126.234,59.707 126.234,58.326C126.234,56.883 126.529,55.762 127.117,54.962C127.705,54.162 128.518,53.761 129.552,53.761C130.57,53.761 131.367,54.154 131.941,54.937C132.516,55.72 132.803,56.792 132.803,58.157C132.803,59.605 132.518,60.733 131.949,61.541C131.381,62.35 130.561,62.755 129.483,62.755Z" style="fill:white;fill-rule:nonzero;"/>
            </g>
            <g transform="matrix(4.16667,0,0,4.16667,0,0)">
                <path d="M139.148,62.603L139.148,56.832C139.148,55.503 138.625,54.839 137.578,54.839C137.041,54.839 136.605,55.033 136.273,55.42C135.939,55.808 135.771,56.337 135.771,57.01L135.771,62.603L134.541,62.603L134.541,53.914L135.771,53.914L135.771,55.221L135.814,55.221C136.25,54.248 136.984,53.761 138.02,53.761C139.592,53.761 140.379,54.687 140.379,56.536L140.379,62.603L139.148,62.603Z" style="fill:white;fill-rule:nonzero;"/>
            </g>
            <g transform="matrix(4.16667,0,0,4.16667,0,0)">
                <path d="M146.377,58.029L144.672,58.411C143.711,58.626 143.229,59.201 143.229,60.133C143.229,60.615 143.354,60.997 143.604,61.28C143.852,61.562 144.174,61.703 144.57,61.703C145.125,61.703 145.564,61.48 145.889,61.033C146.215,60.585 146.377,60.003 146.377,59.285L146.377,58.029ZM146.377,62.603L146.377,61.295L146.344,61.295C145.902,62.269 145.166,62.755 144.137,62.755C143.498,62.755 142.982,62.528 142.59,62.072C142.195,61.617 142,61.036 142,60.329C142,58.83 142.773,57.902 144.324,57.545L146.377,57.079L146.377,56.501C146.377,55.376 145.879,54.814 144.885,54.814C144.178,54.814 143.441,55.117 142.678,55.721L142.678,54.474C143.48,53.999 144.273,53.761 145.053,53.761C146.756,53.761 147.607,54.703 147.607,56.586L147.607,62.603L146.377,62.603Z" style="fill:white;fill-rule:nonzero;"/>
            </g>
            <g transform="matrix(4.16667,0,0,4.16667,0,0)">
                <rect x="149.729" y="49.74" width="1.23" height="12.863" style="fill:white;"/>
            </g>
        </g>
    </g>
</svg>
